<svg width="800" height="400" viewBox="0 0 800 400" xmlns="http://www.w3.org/2000/svg"><defs><pattern id="satori_pattern_id_0" x="0" y="0" width="1" height="1" patternUnits="objectBoundingBox"><linearGradient id="satori_biid_0" x1="-0.10000000000000007" y1="0.20000000000000054" x2="1.1" y2="0.7999999999999994" spreadMethod="pad"><stop offset="0%" stop-color="#4B75F2"/><stop offset="100%" stop-color="#B3BDF2"/></linearGradient><rect x="0" y="0" width="800" height="400" fill="url(#satori_biid_0)"/></pattern></defs><mask id="satori_om-id"><rect x="0" y="0" width="800" height="400" fill="#fff"/></mask><rect x="0" y="0" width="800" height="400" fill="url(#satori_pattern_id_0)"/><defs><pattern id="satori_pattern_id-0_1" x="0" y="0" width="0.05" height="0.1" patternUnits="objectBoundingBox"><linearGradient id="satori_biid-0_1" x1="0" y1="0" x2="1" y2="0" spreadMethod="pad"><stop offset="0%" stop-color="#ffffff15"/><stop offset="2.5%" stop-color="#ffffff15"/><stop offset="2.5%" stop-color="transparent"/><stop offset="100%" stop-color="transparent"/></linearGradient><rect x="0" y="0" width="40" height="40" fill="url(#satori_biid-0_1)"/></pattern><pattern id="satori_pattern_id-0_0" x="0" y="0" width="0.05" height="0.1" patternUnits="objectBoundingBox"><linearGradient id="satori_biid-0_0" x1="0" y1="0" x2="0" y2="1" spreadMethod="pad"><stop offset="0%" stop-color="#ffffff15"/><stop offset="2.5%" stop-color="#ffffff15"/><stop offset="2.5%" stop-color="transparent"/><stop offset="100%" stop-color="transparent"/></linearGradient><rect x="0" y="0" width="40" height="40" fill="url(#satori_biid-0_0)"/></pattern></defs><mask id="satori_om-id-0"><rect x="0" y="0" width="800" height="400" fill="#fff"/></mask><g opacity="0.2"><rect x="0" y="0" width="800" height="400" fill="url(#satori_pattern_id-0_1)"/><rect x="0" y="0" width="800" height="400" fill="url(#satori_pattern_id-0_0)"/></g><mask id="satori_om-id-1"><rect x="55" y="43" width="691" height="314" fill="#fff"/></mask><clipPath id="satori_cp-id-1-0"><rect x="361" y="43" width="80" height="80"/></clipPath><mask id="satori_om-id-1-0"><rect x="361" y="43" width="80" height="80" fill="#fff"/></mask><image x="361" y="43" width="80" height="80" href="data:image/svg+xml;utf8,%3Csvg  fill=%22none%22 xmlns=%22http://www.w3.org/2000/svg%22 width=%2280%22 height=%2280%22 viewBox=%220 0 24 24%22%3E%3Cpath d=%22M3 21H21M3 21V19L12 10L21 19V21M3 21H9M21 21H15M9 21V17H15V21M9 21H15%22 stroke=%22white%22 stroke-width=%222%22 stroke-linecap=%22round%22 stroke-linejoin=%22round%22%3E%3C/path%3E%3Cpath d=%22M10 9.5V10.5M14 9.5V10.5M9 6.5H15C15 6.5 15 3 12 3C9 3 9 6.5 9 6.5Z%22 stroke=%22white%22 stroke-width=%221.5%22 stroke-linecap=%22round%22 stroke-linejoin=%22round%22%3E%3C/path%3E%3C/svg%3E" preserveAspectRatio="none" clip-path="url(#satori_cp-id-1-0)" mask="url(#satori_om-id-1-0)"/><mask id="satori_om-id-1-0-0"><rect x="361" y="43" width="0" height="80" fill="#fff"/></mask><mask id="satori_om-id-1-0-1"><rect x="361" y="43" width="0" height="80" fill="#fff"/></mask><mask id="satori_om-id-1-1"><rect x="55" y="143" width="691" height="165" fill="#fff"/></mask><mask id="satori_om-id-1-1-0"><rect x="55" y="143" width="691" height="77" fill="#fff"/></mask><defs><filter id="satori_s-id-1-1-0-0" x="-7.86%" y="-32.66%" width="125.71%" height="181.01%"><feDropShadow dx="0" dy="2" stdDeviation="5" flood-color="rgba(0,0,0,0.15)" flood-opacity="1"/></filter></defs><g filter="url(#satori_s-id-1-1-0-0)"><path fill="white" d="M68.9 205L59.0 205L59.0 158.5L77.4 158.5Q82.7 158.5 86.4 160.3Q90.2 162.2 92.1 165.6Q94.1 169.0 94.1 173.7L94.1 173.7Q94.1 178.3 92.1 181.6Q90.1 185.0 86.3 186.7Q82.5 188.5 77.2 188.5L77.2 188.5L64.9 188.5L64.9 180.6L75.6 180.6Q78.4 180.6 80.3 179.8Q82.1 179.0 83.0 177.5Q84.0 176.0 84.0 173.7L84.0 173.7Q84.0 171.3 83.0 169.8Q82.1 168.2 80.2 167.3Q78.4 166.5 75.5 166.5L75.5 166.5L68.9 166.5L68.9 205ZM73.6 183.8L84.2 183.8L95.8 205L84.9 205L73.6 183.8ZM116.2 205.7L116.2 205.7Q110.8 205.7 106.9 203.5Q103.0 201.3 101.0 197.3Q98.9 193.2 98.9 187.7L98.9 187.7Q98.9 182.3 101.0 178.3Q103.0 174.2 106.9 171.9Q110.7 169.6 115.8 169.6L115.8 169.6Q119.3 169.6 122.2 170.7Q125.2 171.8 127.5 174.0Q129.7 176.3 131.0 179.6Q132.2 182.9 132.2 187.4L132.2 187.4L132.2 190.0L102.7 190.0L102.7 184.0L123.1 184.0Q123.1 181.9 122.2 180.3Q121.3 178.7 119.7 177.8Q118.1 176.9 116.0 176.9L116.0 176.9Q113.8 176.9 112.1 177.9Q110.4 178.9 109.4 180.6Q108.5 182.3 108.4 184.3L108.4 184.3L108.4 190.0Q108.4 192.6 109.4 194.5Q110.4 196.4 112.1 197.4Q113.9 198.5 116.3 198.5L116.3 198.5Q118.0 198.5 119.3 198Q120.6 197.5 121.6 196.6Q122.5 195.7 123.0 194.4L123.0 194.4L132 195Q131.3 198.2 129.2 200.6Q127.1 203.0 123.8 204.4Q120.5 205.7 116.2 205.7ZM148.5 205.7L148.5 205.7Q145.1 205.7 142.5 204.5Q139.9 203.3 138.4 201.0Q136.9 198.7 136.9 195.3L136.9 195.3Q136.9 192.3 138.0 190.4Q139.0 188.4 140.9 187.2Q142.7 186.0 145.1 185.4Q147.4 184.8 150 184.5L150 184.5Q153.0 184.2 154.9 183.9Q156.8 183.6 157.6 183.0Q158.5 182.5 158.5 181.4L158.5 181.4L158.5 181.2Q158.5 179.1 157.1 177.9Q155.8 176.7 153.3 176.7L153.3 176.7Q150.7 176.7 149.1 177.9Q147.6 179 147.1 180.7L147.1 180.7L138.1 180Q138.8 176.8 140.8 174.5Q142.8 172.2 146.0 170.9Q149.1 169.6 153.3 169.6L153.3 169.6Q156.2 169.6 158.9 170.3Q161.6 171 163.6 172.4Q165.7 173.9 166.9 176.1Q168.1 178.3 168.1 181.5L168.1 181.5L168.1 205L159.0 205L159.0 200.2L158.7 200.2Q157.8 201.8 156.4 203.0Q155.0 204.3 153.0 205.0Q151.1 205.7 148.5 205.7ZM151.3 199.0L151.3 199.0Q153.4 199.0 155.0 198.1Q156.7 197.3 157.6 195.8Q158.5 194.4 158.5 192.5L158.5 192.5L158.5 188.8Q158.1 189.1 157.3 189.4Q156.5 189.6 155.5 189.8Q154.5 190.0 153.6 190.1Q152.6 190.3 151.8 190.4L151.8 190.4Q150.1 190.6 148.8 191.2Q147.5 191.7 146.8 192.6Q146.1 193.6 146.1 194.9L146.1 194.9Q146.1 196.9 147.6 197.9Q149.0 199.0 151.3 199.0ZM175.7 158.5L185.3 158.5L185.3 205L175.7 205L175.7 158.5Z M240.1 205L208.7 205L208.7 158.5L240.0 158.5L240.0 166.6L218.5 166.6L218.5 177.7L238.4 177.7L238.4 185.8L218.5 185.8L218.5 196.9L240.1 196.9L240.1 205ZM276.8 180.0L276.8 180.0L267.9 180.6Q267.7 179.5 266.9 178.5Q266.2 177.6 264.9 177.1Q263.7 176.5 262.0 176.5L262.0 176.5Q259.8 176.5 258.3 177.4Q256.7 178.4 256.7 180.0L256.7 180.0Q256.7 181.2 257.7 182.1Q258.7 182.9 261.1 183.5L261.1 183.5L267.5 184.7Q272.5 185.8 275.0 188.1Q277.5 190.4 277.5 194.2L277.5 194.2Q277.5 197.6 275.5 200.2Q273.5 202.8 270.0 204.2Q266.5 205.7 262.0 205.7L262.0 205.7Q255.1 205.7 251.0 202.8Q246.9 199.9 246.2 194.9L246.2 194.9L255.7 194.4Q256.1 196.5 257.8 197.6Q259.4 198.7 262.0 198.7L262.0 198.7Q264.6 198.7 266.1 197.7Q267.7 196.7 267.7 195.2L267.7 195.2Q267.7 193.8 266.6 193.0Q265.5 192.1 263.2 191.7L263.2 191.7L257.2 190.5Q252.1 189.5 249.6 186.9Q247.1 184.4 247.1 180.5L247.1 180.5Q247.1 177.1 248.9 174.7Q250.8 172.3 254.1 171.0Q257.4 169.6 261.9 169.6L261.9 169.6Q268.5 169.6 272.3 172.4Q276.1 175.2 276.8 180.0ZM281.2 170.1L302.2 170.1L302.2 177.4L281.2 177.4L281.2 170.1ZM286.0 195.5L286.0 161.7L295.7 161.7L295.7 194.3Q295.7 195.6 296.1 196.4Q296.5 197.1 297.2 197.4Q298.0 197.7 298.9 197.7L298.9 197.7Q299.6 197.7 300.3 197.6Q301.0 197.4 301.3 197.4L301.3 197.4L302.9 204.6Q302.1 204.8 300.8 205.1Q299.5 205.4 297.6 205.5L297.6 205.5Q294.1 205.6 291.5 204.5Q288.9 203.5 287.4 201.2Q286.0 199.0 286.0 195.5L286.0 195.5ZM318.5 205.7L318.5 205.7Q315.1 205.7 312.5 204.5Q309.9 203.3 308.4 201.0Q306.9 198.7 306.9 195.3L306.9 195.3Q306.9 192.3 308.0 190.4Q309.0 188.4 310.9 187.2Q312.7 186.0 315.1 185.4Q317.4 184.8 320 184.5L320 184.5Q323.0 184.2 324.9 183.9Q326.8 183.6 327.6 183.0Q328.5 182.5 328.5 181.4L328.5 181.4L328.5 181.2Q328.5 179.1 327.1 177.9Q325.8 176.7 323.3 176.7L323.3 176.7Q320.7 176.7 319.1 177.9Q317.6 179 317.1 180.7L317.1 180.7L308.1 180Q308.8 176.8 310.8 174.5Q312.8 172.2 316.0 170.9Q319.1 169.6 323.3 169.6L323.3 169.6Q326.2 169.6 328.9 170.3Q331.6 171 333.6 172.4Q335.7 173.9 336.9 176.1Q338.1 178.3 338.1 181.5L338.1 181.5L338.1 205L329.0 205L329.0 200.2L328.7 200.2Q327.8 201.8 326.4 203.0Q325.0 204.3 323.0 205.0Q321.1 205.7 318.5 205.7ZM321.3 199.0L321.3 199.0Q323.4 199.0 325.0 198.1Q326.7 197.3 327.6 195.8Q328.5 194.4 328.5 192.5L328.5 192.5L328.5 188.8Q328.1 189.1 327.3 189.4Q326.5 189.6 325.5 189.8Q324.5 190.0 323.6 190.1Q322.6 190.3 321.8 190.4L321.8 190.4Q320.1 190.6 318.8 191.2Q317.5 191.7 316.8 192.6Q316.1 193.6 316.1 194.9L316.1 194.9Q316.1 196.9 317.6 197.9Q319.0 199.0 321.3 199.0ZM343.2 170.1L364.2 170.1L364.2 177.4L343.2 177.4L343.2 170.1ZM348.0 195.5L348.0 161.7L357.7 161.7L357.7 194.3Q357.7 195.6 358.1 196.4Q358.5 197.1 359.2 197.4Q360.0 197.7 360.9 197.7L360.9 197.7Q361.6 197.7 362.3 197.6Q363.0 197.4 363.3 197.4L363.3 197.4L364.9 204.6Q364.1 204.8 362.8 205.1Q361.5 205.4 359.6 205.5L359.6 205.5Q356.1 205.6 353.5 204.5Q350.9 203.5 349.4 201.2Q348.0 199.0 348.0 195.5L348.0 195.5ZM386.1 205.7L386.1 205.7Q380.7 205.7 376.8 203.5Q372.9 201.3 370.8 197.3Q368.8 193.2 368.8 187.7L368.8 187.7Q368.8 182.3 370.8 178.3Q372.9 174.2 376.7 171.9Q380.5 169.6 385.7 169.6L385.7 169.6Q389.1 169.6 392.1 170.7Q395.1 171.8 397.4 174.0Q399.6 176.3 400.8 179.6Q402.1 182.9 402.1 187.4L402.1 187.4L402.1 190.0L372.6 190.0L372.6 184.0L393.0 184.0Q393.0 181.9 392.1 180.3Q391.2 178.7 389.6 177.8Q388.0 176.9 385.8 176.9L385.8 176.9Q383.6 176.9 381.9 177.9Q380.3 178.9 379.3 180.6Q378.3 182.3 378.3 184.3L378.3 184.3L378.3 190.0Q378.3 192.6 379.3 194.5Q380.3 196.4 382.0 197.4Q383.8 198.5 386.2 198.5L386.2 198.5Q387.8 198.5 389.2 198Q390.5 197.5 391.5 196.6Q392.4 195.7 392.9 194.4L392.9 194.4L401.9 195Q401.2 198.2 399.1 200.6Q397 203.0 393.7 204.4Q390.4 205.7 386.1 205.7Z "/></g><mask id="satori_om-id-1-1-1"><rect x="55" y="220" width="691" height="88" fill="#fff"/></mask><defs><clipPath id="satori_bc-id-1-1-1-0"><rect x="55" y="220" width="366" height="88"/></clipPath></defs><mask id="satori_om-id-1-1-1-0"><rect x="55" y="220" width="366" height="82" fill="#fff"/><path width="366" height="88" fill="none" stroke="#000" stroke-width="12" d="M421,308 A0,0 0 0 1 421,308 h-366 A0,0 0 0 1 55,308"/></mask><path width="366" height="88" clip-path="url(#satori_bc-id-1-1-1-0)" fill="none" stroke="white" stroke-width="12" d="M421,308 A0,0 0 0 1 421,308 h-366 A0,0 0 0 1 55,308"/><defs><filter id="satori_s-id-1-1-1-0-0" x="-7.72%" y="-32.66%" width="125.45%" height="181.01%"><feDropShadow dx="0" dy="2" stdDeviation="5" flood-color="rgba(0,0,0,0.15)" flood-opacity="1"/></filter></defs><g filter="url(#satori_s-id-1-1-1-0-0)"><path fill="white" d="M59.0 235.5L68.9 235.5L68.9 282L59.0 282L59.0 235.5ZM86.5 261.8L86.5 261.8L86.5 282L76.8 282L76.8 247.1L86.0 247.1L86.0 253.3L86.5 253.3Q87.6 250.2 90.3 248.4Q93.1 246.6 97.0 246.6L97.0 246.6Q100.6 246.6 103.3 248.2Q106 249.8 107.5 252.8Q109 255.7 109 259.8L109 259.8L109 282L99.3 282L99.3 261.5Q99.3 258.3 97.7 256.5Q96.0 254.7 93.1 254.7L93.1 254.7Q91.2 254.7 89.7 255.5Q88.2 256.4 87.4 258.0Q86.5 259.6 86.5 261.8ZM137.6 247.1L147.9 247.1L135.7 282L124.8 282L112.6 247.1L122.8 247.1L130.0 272.1L130.4 272.1L137.6 247.1ZM167.6 282.7L167.6 282.7Q162.2 282.7 158.3 280.5Q154.5 278.3 152.4 274.3Q150.3 270.2 150.3 264.7L150.3 264.7Q150.3 259.3 152.4 255.3Q154.5 251.2 158.3 248.9Q162.1 246.6 167.2 246.6L167.2 246.6Q170.7 246.6 173.6 247.7Q176.6 248.8 178.9 251.0Q181.1 253.3 182.4 256.6Q183.6 259.9 183.6 264.4L183.6 264.4L183.6 267.0L154.1 267.0L154.1 261.0L174.5 261.0Q174.5 258.9 173.6 257.3Q172.7 255.7 171.1 254.8Q169.5 253.9 167.4 253.9L167.4 253.9Q165.2 253.9 163.5 254.9Q161.8 255.9 160.8 257.6Q159.9 259.3 159.8 261.3L159.8 261.3L159.8 267.0Q159.8 269.6 160.8 271.5Q161.8 273.4 163.5 274.4Q165.3 275.5 167.8 275.5L167.8 275.5Q169.4 275.5 170.7 275Q172.0 274.5 173.0 273.6Q174.0 272.7 174.5 271.4L174.5 271.4L183.4 272Q182.7 275.2 180.6 277.6Q178.5 280.0 175.2 281.4Q171.9 282.7 167.6 282.7ZM219.0 257.0L219.0 257.0L210.1 257.6Q209.9 256.5 209.1 255.5Q208.4 254.6 207.2 254.1Q206.0 253.5 204.3 253.5L204.3 253.5Q202.0 253.5 200.5 254.4Q198.9 255.4 198.9 257.0L198.9 257.0Q198.9 258.2 199.9 259.1Q200.9 259.9 203.4 260.5L203.4 260.5L209.7 261.7Q214.8 262.8 217.3 265.1Q219.8 267.4 219.8 271.2L219.8 271.2Q219.8 274.6 217.8 277.2Q215.8 279.8 212.3 281.2Q208.8 282.7 204.2 282.7L204.2 282.7Q197.3 282.7 193.2 279.8Q189.1 276.9 188.4 271.9L188.4 271.9L197.9 271.4Q198.3 273.5 200.0 274.6Q201.7 275.7 204.3 275.7L204.3 275.7Q206.8 275.7 208.4 274.7Q209.9 273.7 209.9 272.2L209.9 272.2Q209.9 270.8 208.8 270.0Q207.7 269.1 205.5 268.7L205.5 268.7L199.4 267.5Q194.3 266.5 191.8 263.9Q189.3 261.4 189.3 257.5L189.3 257.5Q189.3 254.1 191.1 251.7Q193.0 249.3 196.3 248.0Q199.6 246.6 204.1 246.6L204.1 246.6Q210.7 246.6 214.5 249.4Q218.3 252.2 219.0 257.0ZM223.4 247.1L244.5 247.1L244.5 254.4L223.4 254.4L223.4 247.1ZM228.2 272.5L228.2 238.7L237.9 238.7L237.9 271.3Q237.9 272.6 238.3 273.4Q238.7 274.1 239.4 274.4Q240.2 274.7 241.2 274.7L241.2 274.7Q241.8 274.7 242.5 274.6Q243.2 274.4 243.6 274.4L243.6 274.4L245.1 281.6Q244.4 281.8 243.0 282.1Q241.7 282.4 239.8 282.5L239.8 282.5Q236.3 282.6 233.7 281.5Q231.1 280.5 229.6 278.2Q228.2 276.0 228.2 272.5L228.2 272.5ZM260.4 282L250.8 282L250.8 247.1L260.0 247.1L260.0 253.3L260.4 253.3Q261.5 250.2 264.0 248.4Q266.6 246.6 270.1 246.6L270.1 246.6Q273.7 246.6 276.2 248.4Q278.8 250.2 279.6 253.3L279.6 253.3L280.0 253.3Q281.0 250.3 283.8 248.4Q286.6 246.6 290.5 246.6L290.5 246.6Q295.4 246.6 298.4 249.7Q301.5 252.8 301.5 258.5L301.5 258.5L301.5 282L291.8 282L291.8 260.4Q291.8 257.5 290.3 256.1Q288.7 254.6 286.4 254.6L286.4 254.6Q283.8 254.6 282.3 256.3Q280.8 258.0 280.8 260.7L280.8 260.7L280.8 282L271.4 282L271.4 260.2Q271.4 257.7 270.0 256.1Q268.5 254.6 266.1 254.6L266.1 254.6Q264.5 254.6 263.2 255.4Q261.9 256.2 261.2 257.7Q260.4 259.1 260.4 261.0L260.4 261.0L260.4 282ZM325.0 282.7L325.0 282.7Q319.6 282.7 315.8 280.5Q311.9 278.3 309.8 274.3Q307.7 270.2 307.7 264.7L307.7 264.7Q307.7 259.3 309.8 255.3Q311.9 251.2 315.7 248.9Q319.5 246.6 324.6 246.6L324.6 246.6Q328.1 246.6 331.1 247.7Q334.1 248.8 336.3 251.0Q338.5 253.3 339.8 256.6Q341.0 259.9 341.0 264.4L341.0 264.4L341.0 267.0L311.6 267.0L311.6 261.0L331.9 261.0Q331.9 258.9 331.0 257.3Q330.1 255.7 328.5 254.8Q326.9 253.9 324.8 253.9L324.8 253.9Q322.6 253.9 320.9 254.9Q319.2 255.9 318.3 257.6Q317.3 259.3 317.3 261.3L317.3 261.3L317.3 267.0Q317.3 269.6 318.2 271.5Q319.2 273.4 321.0 274.4Q322.8 275.5 325.2 275.5L325.2 275.5Q326.8 275.5 328.1 275Q329.5 274.5 330.4 273.6Q331.4 272.7 331.9 271.4L331.9 271.4L340.8 272Q340.2 275.2 338.1 277.6Q336.0 280.0 332.6 281.4Q329.3 282.7 325.0 282.7ZM357.0 261.8L357.0 261.8L357.0 282L347.4 282L347.4 247.1L356.6 247.1L356.6 253.3L357.0 253.3Q358.2 250.2 360.9 248.4Q363.6 246.6 367.5 246.6L367.5 246.6Q371.1 246.6 373.8 248.2Q376.5 249.8 378.0 252.8Q379.5 255.7 379.5 259.8L379.5 259.8L379.5 282L369.9 282L369.9 261.5Q369.9 258.3 368.2 256.5Q366.6 254.7 363.7 254.7L363.7 254.7Q361.7 254.7 360.2 255.5Q358.7 256.4 357.9 258.0Q357.1 259.6 357.0 261.8ZM384.7 247.1L405.7 247.1L405.7 254.4L384.7 254.4L384.7 247.1ZM389.5 272.5L389.5 238.7L399.2 238.7L399.2 271.3Q399.2 272.6 399.6 273.4Q400.0 274.1 400.7 274.4Q401.5 274.7 402.4 274.7L402.4 274.7Q403.1 274.7 403.8 274.6Q404.5 274.4 404.8 274.4L404.8 274.4L406.4 281.6Q405.6 281.8 404.3 282.1Q403.0 282.4 401.1 282.5L401.1 282.5Q397.6 282.6 395.0 281.5Q392.4 280.5 390.9 278.2Q389.5 276.0 389.5 272.5L389.5 272.5Z "/></g><defs><filter id="satori_s-id-1-1-1-1" x="-8.46%" y="-32.66%" width="126.92%" height="181.01%"><feDropShadow dx="0" dy="2" stdDeviation="5" flood-color="rgba(0,0,0,0.15)" flood-opacity="1"/></filter></defs><g filter="url(#satori_s-id-1-1-1-1)"><path fill="white" d="M466.1 251.8L466.1 251.8L456.2 251.8Q455.9 249.8 455.0 248.3Q454.2 246.8 452.9 245.7Q451.6 244.7 449.9 244.1Q448.1 243.5 446.1 243.5L446.1 243.5Q442.5 243.5 439.8 245.3Q437.2 247.1 435.7 250.5Q434.2 253.9 434.2 258.7L434.2 258.7Q434.2 263.7 435.7 267.1Q437.2 270.5 439.9 272.2Q442.5 273.9 446.1 273.9L446.1 273.9Q448.0 273.9 449.7 273.4Q451.4 272.9 452.8 271.9Q454.1 270.9 454.9 269.4Q455.8 268.0 456.2 266.1L456.2 266.1L466.1 266.1Q465.7 269.3 464.2 272.3Q462.7 275.3 460.1 277.6Q457.5 279.9 453.9 281.3Q450.4 282.6 445.9 282.6L445.9 282.6Q439.7 282.6 434.8 279.8Q429.9 277 427.1 271.7Q424.2 266.3 424.2 258.7L424.2 258.7Q424.2 251.1 427.1 245.8Q430.0 240.4 434.9 237.6Q439.8 234.8 445.9 234.8L445.9 234.8Q450.0 234.8 453.4 236.0Q456.9 237.1 459.6 239.3Q462.3 241.4 463.9 244.6Q465.6 247.7 466.1 251.8ZM483.0 282.7L483.0 282.7Q479.6 282.7 477 281.5Q474.4 280.3 472.9 278.0Q471.4 275.7 471.4 272.3L471.4 272.3Q471.4 269.3 472.4 267.4Q473.5 265.4 475.3 264.2Q477.2 263.0 479.5 262.4Q481.9 261.8 484.5 261.5L484.5 261.5Q487.5 261.2 489.4 260.9Q491.3 260.6 492.1 260.0Q492.9 259.5 492.9 258.4L492.9 258.4L492.9 258.2Q492.9 256.1 491.6 254.9Q490.2 253.7 487.8 253.7L487.8 253.7Q485.1 253.7 483.6 254.9Q482.0 256 481.5 257.7L481.5 257.7L472.6 257Q473.3 253.8 475.3 251.5Q477.3 249.2 480.4 247.9Q483.6 246.6 487.8 246.6L487.8 246.6Q490.7 246.6 493.4 247.3Q496.0 248 498.1 249.4Q500.2 250.9 501.4 253.1Q502.6 255.3 502.6 258.5L502.6 258.5L502.6 282L493.4 282L493.4 277.2L493.2 277.2Q492.3 278.8 490.9 280.0Q489.5 281.3 487.5 282.0Q485.5 282.7 483.0 282.7ZM485.7 276.0L485.7 276.0Q487.9 276.0 489.5 275.1Q491.1 274.3 492.1 272.8Q493 271.4 493 269.5L493 269.5L493 265.8Q492.5 266.1 491.8 266.4Q491.0 266.6 490 266.8Q489.0 267.0 488.0 267.1Q487.1 267.3 486.3 267.4L486.3 267.4Q484.6 267.6 483.3 268.2Q482.0 268.7 481.3 269.6Q480.6 270.6 480.6 271.9L480.6 271.9Q480.6 273.9 482.1 274.9Q483.5 276.0 485.7 276.0ZM510.1 235.5L519.8 235.5L519.8 282L510.1 282L510.1 235.5ZM543.3 282.7L543.3 282.7Q538.0 282.7 534.1 280.4Q530.3 278.1 528.2 274.0Q526.1 270.0 526.1 264.7L526.1 264.7Q526.1 259.3 528.2 255.3Q530.3 251.2 534.1 248.9Q538.0 246.6 543.3 246.6L543.3 246.6Q547.8 246.6 551.3 248.3Q554.7 250.0 556.7 253.0Q558.7 256.0 558.9 260L558.9 260L549.8 260Q549.4 257.4 547.7 255.8Q546.1 254.2 543.4 254.2L543.4 254.2Q541.2 254.2 539.5 255.4Q537.8 256.6 536.9 258.9Q536.0 261.3 536.0 264.5L536.0 264.5Q536.0 267.9 536.9 270.2Q537.8 272.6 539.5 273.8Q541.2 275.0 543.4 275.0L543.4 275.0Q545.1 275.0 546.4 274.3Q547.8 273.7 548.6 272.4Q549.5 271.0 549.8 269.2L549.8 269.2L558.9 269.2Q558.7 273.2 556.7 276.2Q554.8 279.3 551.4 281.0Q548.0 282.7 543.3 282.7ZM587.5 267.1L587.5 267.1L587.5 247.1L597.2 247.1L597.2 282L587.9 282L587.9 275.7L587.5 275.7Q586.4 278.7 583.6 280.6Q580.9 282.5 577.0 282.5L577.0 282.5Q573.5 282.5 570.8 280.9Q568.1 279.3 566.6 276.3Q565.2 273.4 565.1 269.3L565.1 269.3L565.1 247.1L574.8 247.1L574.8 267.6Q574.8 270.7 576.5 272.5Q578.1 274.3 580.9 274.3L580.9 274.3Q582.6 274.3 584.1 273.5Q585.7 272.7 586.6 271.1Q587.5 269.5 587.5 267.1ZM604.9 235.5L614.6 235.5L614.6 282L604.9 282L604.9 235.5ZM632.3 282.7L632.3 282.7Q629.0 282.7 626.3 281.5Q623.7 280.3 622.2 278.0Q620.7 275.7 620.7 272.3L620.7 272.3Q620.7 269.3 621.8 267.4Q622.8 265.4 624.7 264.2Q626.5 263.0 628.9 262.4Q631.2 261.8 633.8 261.5L633.8 261.5Q636.9 261.2 638.7 260.9Q640.6 260.6 641.4 260.0Q642.3 259.5 642.3 258.4L642.3 258.4L642.3 258.2Q642.3 256.1 640.9 254.9Q639.6 253.7 637.1 253.7L637.1 253.7Q634.5 253.7 632.9 254.9Q631.4 256 630.9 257.7L630.9 257.7L621.9 257Q622.6 253.8 624.6 251.5Q626.6 249.2 629.8 247.9Q633.0 246.6 637.1 246.6L637.1 246.6Q640.0 246.6 642.7 247.3Q645.4 248 647.5 249.4Q649.5 250.9 650.7 253.1Q652.0 255.3 652.0 258.5L652.0 258.5L652.0 282L642.8 282L642.8 277.2L642.5 277.2Q641.7 278.8 640.2 280.0Q638.8 281.3 636.9 282.0Q634.9 282.7 632.3 282.7ZM635.1 276.0L635.1 276.0Q637.2 276.0 638.8 275.1Q640.5 274.3 641.4 272.8Q642.3 271.4 642.3 269.5L642.3 269.5L642.3 265.8Q641.9 266.1 641.1 266.4Q640.3 266.6 639.3 266.8Q638.4 267.0 637.4 267.1Q636.4 267.3 635.6 267.4L635.6 267.4Q633.9 267.6 632.6 268.2Q631.4 268.7 630.7 269.6Q630.0 270.6 630.0 271.9L630.0 271.9Q630.0 273.9 631.4 274.9Q632.8 276.0 635.1 276.0ZM657.0 247.1L678.0 247.1L678.0 254.4L657.0 254.4L657.0 247.1ZM661.8 272.5L661.8 238.7L671.5 238.7L671.5 271.3Q671.5 272.6 671.9 273.4Q672.3 274.1 673.0 274.4Q673.8 274.7 674.7 274.7L674.7 274.7Q675.4 274.7 676.1 274.6Q676.8 274.4 677.2 274.4L677.2 274.4L678.7 281.6Q678.0 281.8 676.6 282.1Q675.3 282.4 673.4 282.5L673.4 282.5Q669.9 282.6 667.3 281.5Q664.7 280.5 663.2 278.2Q661.8 276.0 661.8 272.5L661.8 272.5ZM699.7 282.7L699.7 282.7Q694.5 282.7 690.6 280.4Q686.7 278.2 684.7 274.1Q682.6 270.0 682.6 264.7L682.6 264.7Q682.6 259.3 684.7 255.2Q686.7 251.2 690.6 248.9Q694.5 246.6 699.7 246.6L699.7 246.6Q705.0 246.6 708.9 248.9Q712.7 251.2 714.8 255.2Q716.9 259.3 716.9 264.7L716.9 264.7Q716.9 270.0 714.8 274.1Q712.7 278.2 708.9 280.4Q705.0 282.7 699.7 282.7ZM699.8 275.2L699.8 275.2Q702.2 275.2 703.8 273.8Q705.4 272.4 706.3 270.0Q707.1 267.7 707.1 264.6L707.1 264.6Q707.1 261.6 706.3 259.2Q705.4 256.8 703.8 255.4Q702.2 254.0 699.8 254.0L699.8 254.0Q697.4 254.0 695.7 255.4Q694.1 256.8 693.2 259.2Q692.4 261.6 692.4 264.6L692.4 264.6Q692.4 267.7 693.2 270.0Q694.1 272.4 695.7 273.8Q697.4 275.2 699.8 275.2ZM732.9 282L723.2 282L723.2 247.1L732.6 247.1L732.6 253.2L733.0 253.2Q734.0 249.9 736.2 248.3Q738.5 246.6 741.4 246.6L741.4 246.6Q742.1 246.6 743.0 246.7Q743.8 246.8 744.4 246.9L744.4 246.9L744.4 255.5Q743.7 255.3 742.5 255.2Q741.3 255 740.3 255L740.3 255Q738.2 255 736.5 255.9Q734.9 256.8 733.9 258.5Q732.9 260.1 732.9 262.3L732.9 262.3L732.9 282Z "/></g><mask id="satori_om-id-1-2"><rect x="156" y="328" width="490" height="29" fill="#fff"/></mask><g opacity="0.9"></g><path fill="white" d="M172.2 339.3L172.2 339.3L170.0 339.3Q169.9 338.3 169.4 337.6Q168.9 337.0 168.3 336.5Q167.6 336.0 166.8 335.8Q166.0 335.5 165.1 335.5L165.1 335.5Q163.6 335.5 162.3 336.3Q161.0 337.1 160.2 338.7Q159.5 340.3 159.5 342.5L159.5 342.5Q159.5 344.8 160.2 346.3Q161.0 347.9 162.3 348.7Q163.6 349.5 165.1 349.5L165.1 349.5Q166.0 349.5 166.8 349.3Q167.6 349.0 168.3 348.6Q168.9 348.1 169.4 347.4Q169.9 346.7 170.0 345.8L170.0 345.8L172.2 345.8Q171.9 347.1 171.3 348.2Q170.7 349.2 169.7 350.0Q168.8 350.7 167.6 351.1Q166.5 351.5 165.1 351.5L165.1 351.5Q162.9 351.5 161.2 350.4Q159.4 349.3 158.4 347.3Q157.4 345.3 157.4 342.5L157.4 342.5Q157.4 339.8 158.4 337.8Q159.4 335.7 161.2 334.6Q162.9 333.6 165.1 333.6L165.1 333.6Q166.5 333.6 167.6 333.9Q168.8 334.3 169.7 335.1Q170.7 335.8 171.3 336.9Q171.9 337.9 172.2 339.3ZM179.1 351.6L179.1 351.6Q177.9 351.6 176.9 351.1Q175.9 350.6 175.3 349.7Q174.7 348.8 174.7 347.5L174.7 347.5Q174.7 346.4 175.1 345.7Q175.6 345.0 176.3 344.6Q177.1 344.2 178.0 344.0Q178.8 343.8 179.8 343.7L179.8 343.7Q181.0 343.5 181.7 343.4Q182.4 343.4 182.8 343.2Q183.1 343.0 183.1 342.5L183.1 342.5L183.1 342.4Q183.1 341.2 182.5 340.5Q181.8 339.8 180.4 339.8L180.4 339.8Q178.9 339.8 178.1 340.4Q177.3 341.0 177.0 341.7L177.0 341.7L175.1 341.1Q175.6 339.9 176.4 339.2Q177.3 338.5 178.3 338.3Q179.3 338.0 180.3 338.0L180.3 338.0Q180.9 338.0 181.8 338.1Q182.6 338.3 183.4 338.7Q184.1 339.2 184.6 340.1Q185.1 341.1 185.1 342.6L185.1 342.6L185.1 351.3L183.1 351.3L183.1 349.5L183.0 349.5Q182.8 349.9 182.4 350.4Q181.9 350.9 181.1 351.2Q180.3 351.6 179.1 351.6ZM179.5 349.8L179.5 349.8Q180.6 349.8 181.5 349.3Q182.3 348.8 182.7 348.1Q183.1 347.3 183.1 346.5L183.1 346.5L183.1 344.7Q183.0 344.8 182.6 344.9Q182.1 345.1 181.6 345.2Q181.0 345.3 180.5 345.3Q180.0 345.4 179.7 345.4L179.7 345.4Q178.9 345.5 178.2 345.7Q177.5 346.0 177.1 346.4Q176.7 346.9 176.7 347.6L176.7 347.6Q176.7 348.7 177.5 349.2Q178.3 349.8 179.5 349.8ZM188.8 333.8L190.8 333.8L190.8 351.3L188.8 351.3L188.8 333.8ZM199.8 351.5L199.8 351.5Q198.0 351.5 196.7 350.7Q195.3 349.8 194.6 348.3Q193.9 346.7 193.9 344.8L193.9 344.8Q193.9 342.8 194.6 341.2Q195.4 339.7 196.7 338.9Q198.0 338.0 199.8 338.0L199.8 338.0Q201.2 338.0 202.3 338.5Q203.4 339.0 204.1 339.9Q204.8 340.9 205.0 342.1L205.0 342.1L203.0 342.1Q202.7 341.2 202.0 340.5Q201.2 339.8 199.8 339.8L199.8 339.8Q198.7 339.8 197.8 340.4Q196.9 341.0 196.4 342.1Q195.9 343.2 195.9 344.7L195.9 344.7Q195.9 346.2 196.4 347.3Q196.9 348.5 197.8 349.1Q198.6 349.7 199.8 349.7L199.8 349.7Q200.6 349.7 201.3 349.4Q201.9 349.2 202.3 348.7Q202.8 348.1 203.0 347.4L203.0 347.4L205.0 347.4Q204.8 348.6 204.1 349.5Q203.5 350.4 202.4 351.0Q201.3 351.5 199.8 351.5ZM216.2 345.9L216.2 345.9L216.2 338.2L218.2 338.2L218.2 351.3L216.2 351.3L216.2 349.0L216.0 349.0Q215.6 350.0 214.6 350.7Q213.6 351.4 212.1 351.4L212.1 351.4Q210.9 351.4 210.0 350.9Q209.0 350.3 208.5 349.2Q207.9 348.1 207.9 346.5L207.9 346.5L207.9 338.2L209.9 338.2L209.9 346.3Q209.9 347.8 210.7 348.6Q211.5 349.5 212.8 349.5L212.8 349.5Q213.5 349.5 214.3 349.1Q215.1 348.7 215.6 347.9Q216.2 347.1 216.2 345.9ZM221.9 333.8L223.9 333.8L223.9 351.3L221.9 351.3L221.9 333.8ZM231.4 351.6L231.4 351.6Q230.2 351.6 229.2 351.1Q228.1 350.6 227.5 349.7Q226.9 348.8 226.9 347.5L226.9 347.5Q226.9 346.4 227.4 345.7Q227.8 345.0 228.6 344.6Q229.3 344.2 230.2 344.0Q231.1 343.8 232.0 343.7L232.0 343.7Q233.2 343.5 234.0 343.4Q234.7 343.4 235.1 343.2Q235.4 343.0 235.4 342.5L235.4 342.5L235.4 342.4Q235.4 341.2 234.7 340.5Q234.0 339.8 232.6 339.8L232.6 339.8Q231.2 339.8 230.4 340.4Q229.6 341.0 229.2 341.7L229.2 341.7L227.3 341.1Q227.8 339.9 228.7 339.2Q229.5 338.5 230.6 338.3Q231.6 338.0 232.6 338.0L232.6 338.0Q233.2 338.0 234.0 338.1Q234.8 338.3 235.6 338.7Q236.4 339.2 236.9 340.1Q237.4 341.1 237.4 342.6L237.4 342.6L237.4 351.3L235.4 351.3L235.4 349.5L235.3 349.5Q235.1 349.9 234.6 350.4Q234.1 350.9 233.3 351.2Q232.6 351.6 231.4 351.6ZM231.7 349.8L231.7 349.8Q232.9 349.8 233.7 349.3Q234.6 348.8 235.0 348.1Q235.4 347.3 235.4 346.5L235.4 346.5L235.4 344.7Q235.3 344.8 234.8 344.9Q234.4 345.1 233.9 345.2Q233.3 345.3 232.8 345.3Q232.2 345.4 231.9 345.4L231.9 345.4Q231.1 345.5 230.5 345.7Q229.8 346.0 229.4 346.4Q229.0 346.9 229.0 347.6L229.0 347.6Q229.0 348.7 229.7 349.2Q230.5 349.8 231.7 349.8ZM240.0 338.2L246.8 338.2L246.8 339.9L240.0 339.9L240.0 338.2ZM242.0 348.0L242.0 335.0L244.0 335.0L244.0 347.5Q244.0 348.4 244.2 348.8Q244.5 349.2 244.9 349.3Q245.3 349.5 245.7 349.5L245.7 349.5Q246.1 349.5 246.3 349.4Q246.5 349.4 246.6 349.4L246.6 349.4L247.0 351.2Q246.8 351.3 246.5 351.3Q246.1 351.4 245.5 351.4L245.5 351.4Q244.7 351.4 243.9 351.1Q243.0 350.7 242.5 349.9Q242.0 349.2 242.0 348.0L242.0 348.0ZM255.2 351.5L255.2 351.5Q253.3 351.5 251.9 350.7Q250.5 349.8 249.8 348.3Q249.1 346.8 249.1 344.8L249.1 344.8Q249.1 342.8 249.8 341.3Q250.5 339.7 251.9 338.9Q253.2 338.0 255.0 338.0L255.0 338.0Q256.0 338.0 257.0 338.3Q258.0 338.7 258.8 339.4Q259.6 340.2 260.1 341.4Q260.6 342.7 260.6 344.5L260.6 344.5L260.6 345.4L250.5 345.4L250.5 343.6L258.5 343.6Q258.5 342.5 258.1 341.7Q257.7 340.8 256.9 340.3Q256.1 339.8 255.0 339.8L255.0 339.8Q253.8 339.8 252.9 340.4Q252.0 341.0 251.5 341.9Q251.1 342.9 251.1 344.0L251.1 344.0L251.1 345.1Q251.1 346.6 251.6 347.6Q252.1 348.7 253.0 349.2Q254.0 349.7 255.2 349.7L255.2 349.7Q256.0 349.7 256.6 349.5Q257.3 349.3 257.7 348.8Q258.2 348.4 258.4 347.7L258.4 347.7L260.4 348.2Q260.1 349.2 259.4 350.0Q258.6 350.7 257.6 351.1Q256.5 351.5 255.2 351.5Z M271.8 356.2L271.8 356.2Q271.3 356.2 270.9 356.1Q270.5 356.0 270.4 355.9L270.4 355.9L270.9 354.1Q271.6 354.3 272.2 354.3Q272.7 354.2 273.2 353.8Q273.6 353.3 274.0 352.3L274.0 352.3L274.4 351.3L269.5 338.2L271.7 338.2L275.3 348.6L275.5 348.6L279.1 338.2L281.3 338.2L275.7 353.2Q275.3 354.2 274.8 354.8Q274.2 355.5 273.5 355.8Q272.8 356.2 271.8 356.2ZM288.8 351.5L288.8 351.5Q287.0 351.5 285.6 350.7Q284.3 349.8 283.6 348.3Q282.8 346.8 282.8 344.8L282.8 344.8Q282.8 342.7 283.6 341.2Q284.3 339.7 285.6 338.8Q287.0 338.0 288.8 338.0L288.8 338.0Q290.5 338.0 291.9 338.8Q293.2 339.7 293.9 341.2Q294.7 342.7 294.7 344.8L294.7 344.8Q294.7 346.8 293.9 348.3Q293.2 349.8 291.9 350.7Q290.5 351.5 288.8 351.5ZM288.8 349.7L288.8 349.7Q290.1 349.7 291.0 349.0Q291.8 348.3 292.3 347.2Q292.7 346.1 292.7 344.8L292.7 344.8Q292.7 343.5 292.3 342.3Q291.8 341.2 291.0 340.5Q290.1 339.8 288.8 339.8L288.8 339.8Q287.4 339.8 286.5 340.5Q285.7 341.2 285.2 342.3Q284.8 343.5 284.8 344.8L284.8 344.8Q284.8 346.1 285.2 347.2Q285.7 348.3 286.5 349.0Q287.4 349.7 288.8 349.7ZM306.0 345.9L306.0 345.9L306.0 338.2L308.0 338.2L308.0 351.3L306.0 351.3L306.0 349.0L305.9 349.0Q305.4 350.0 304.4 350.7Q303.5 351.4 302.0 351.4L302.0 351.4Q300.7 351.4 299.8 350.9Q298.8 350.3 298.3 349.2Q297.7 348.1 297.7 346.5L297.7 346.5L297.7 338.2L299.8 338.2L299.8 346.3Q299.8 347.8 300.6 348.6Q301.4 349.5 302.6 349.5L302.6 349.5Q303.4 349.5 304.2 349.1Q304.9 348.7 305.5 347.9Q306.0 347.1 306.0 345.9ZM313.7 351.3L311.7 351.3L311.7 338.2L313.6 338.2L313.6 340.1L313.8 340.1Q314.1 339.2 315.1 338.6Q316.0 338.0 317.2 338.0L317.2 338.0Q317.4 338.0 317.7 338.0Q318.1 338.0 318.2 338.0L318.2 338.0L318.2 340.0Q318.1 340.0 317.8 340.0Q317.4 339.9 317.0 339.9L317.0 339.9Q316.1 339.9 315.3 340.3Q314.6 340.7 314.1 341.4Q313.7 342.1 313.7 343.0L313.7 343.0L313.7 351.3Z M329.9 356.2L327.9 356.2L327.9 338.2L329.8 338.2L329.8 340.2L330.0 340.2Q330.3 339.9 330.7 339.4Q331.0 338.8 331.8 338.4Q332.5 338.0 333.8 338.0L333.8 338.0Q335.5 338.0 336.7 338.8Q338.0 339.6 338.7 341.2Q339.4 342.7 339.4 344.7L339.4 344.7Q339.4 346.8 338.7 348.3Q338.0 349.9 336.7 350.7Q335.5 351.5 333.9 351.5L333.9 351.5Q332.6 351.5 331.8 351.1Q331.1 350.7 330.7 350.1Q330.3 349.6 330.0 349.2L330.0 349.2L329.9 349.2L329.9 356.2ZM329.8 344.7L329.8 344.7Q329.8 346.2 330.3 347.3Q330.7 348.4 331.5 349.1Q332.4 349.7 333.6 349.7L333.6 349.7Q334.8 349.7 335.7 349.0Q336.5 348.4 337.0 347.2Q337.4 346.1 337.4 344.7L337.4 344.7Q337.4 343.3 337.0 342.2Q336.6 341.1 335.7 340.4Q334.9 339.8 333.6 339.8L333.6 339.8Q332.4 339.8 331.5 340.4Q330.7 341.0 330.3 342.1Q329.8 343.2 329.8 344.7ZM347.8 351.5L347.8 351.5Q346.0 351.5 344.7 350.7Q343.4 349.8 342.6 348.3Q341.9 346.8 341.9 344.8L341.9 344.8Q341.9 342.7 342.6 341.2Q343.4 339.7 344.7 338.8Q346.0 338.0 347.8 338.0L347.8 338.0Q349.6 338.0 350.9 338.8Q352.2 339.7 353.0 341.2Q353.7 342.7 353.7 344.8L353.7 344.8Q353.7 346.8 353.0 348.3Q352.2 349.8 350.9 350.7Q349.6 351.5 347.8 351.5ZM347.8 349.7L347.8 349.7Q349.1 349.7 350.0 349.0Q350.9 348.3 351.3 347.2Q351.7 346.1 351.7 344.8L351.7 344.8Q351.7 343.5 351.3 342.3Q350.9 341.2 350.0 340.5Q349.1 339.8 347.8 339.8L347.8 339.8Q346.4 339.8 345.6 340.5Q344.7 341.2 344.3 342.3Q343.9 343.5 343.9 344.8L343.9 344.8Q343.9 346.1 344.3 347.2Q344.7 348.3 345.6 349.0Q346.4 349.7 347.8 349.7ZM355.7 338.2L362.5 338.2L362.5 339.9L355.7 339.9L355.7 338.2ZM357.7 348.0L357.7 335.0L359.7 335.0L359.7 347.5Q359.7 348.4 359.9 348.8Q360.2 349.2 360.6 349.3Q361.0 349.5 361.4 349.5L361.4 349.5Q361.8 349.5 362.0 349.4Q362.2 349.4 362.3 349.4L362.3 349.4L362.7 351.2Q362.5 351.3 362.2 351.3Q361.8 351.4 361.2 351.4L361.2 351.4Q360.4 351.4 359.6 351.1Q358.7 350.7 358.2 349.9Q357.7 349.2 357.7 348.0L357.7 348.0ZM370.9 351.5L370.9 351.5Q369.0 351.5 367.6 350.7Q366.2 349.8 365.5 348.3Q364.8 346.8 364.8 344.8L364.8 344.8Q364.8 342.8 365.5 341.3Q366.2 339.7 367.6 338.9Q368.9 338.0 370.7 338.0L370.7 338.0Q371.7 338.0 372.7 338.3Q373.7 338.7 374.5 339.4Q375.3 340.2 375.8 341.4Q376.3 342.7 376.3 344.5L376.3 344.5L376.3 345.4L366.2 345.4L366.2 343.6L374.3 343.6Q374.3 342.5 373.8 341.7Q373.4 340.8 372.6 340.3Q371.8 339.8 370.7 339.8L370.7 339.8Q369.5 339.8 368.6 340.4Q367.7 341.0 367.3 341.9Q366.8 342.9 366.8 344.0L366.8 344.0L366.8 345.1Q366.8 346.6 367.3 347.6Q367.8 348.7 368.7 349.2Q369.7 349.7 370.9 349.7L370.9 349.7Q371.7 349.7 372.3 349.5Q373.0 349.3 373.4 348.8Q373.9 348.4 374.1 347.7L374.1 347.7L376.1 348.2Q375.8 349.2 375.1 350.0Q374.3 350.7 373.3 351.1Q372.2 351.5 370.9 351.5ZM381.4 343.4L381.4 343.4L381.4 351.3L379.4 351.3L379.4 338.2L381.3 338.2L381.3 340.2L381.5 340.2Q381.9 339.2 382.9 338.6Q383.8 338.0 385.3 338.0L385.3 338.0Q386.6 338.0 387.6 338.5Q388.6 339.1 389.2 340.2Q389.7 341.3 389.7 342.9L389.7 342.9L389.7 351.3L387.7 351.3L387.7 343.1Q387.7 341.5 386.9 340.7Q386.1 339.8 384.7 339.8L384.7 339.8Q383.8 339.8 383.0 340.2Q382.2 340.6 381.8 341.4Q381.4 342.2 381.4 343.4ZM392.3 338.2L399.1 338.2L399.1 339.9L392.3 339.9L392.3 338.2ZM394.3 348.0L394.3 335.0L396.3 335.0L396.3 347.5Q396.3 348.4 396.6 348.8Q396.8 349.2 397.2 349.3Q397.6 349.5 398.0 349.5L398.0 349.5Q398.4 349.5 398.6 349.4Q398.8 349.4 398.9 349.4L398.9 349.4L399.3 351.2Q399.1 351.3 398.8 351.3Q398.4 351.4 397.8 351.4L397.8 351.4Q397.0 351.4 396.2 351.1Q395.4 350.7 394.8 349.9Q394.3 349.2 394.3 348.0L394.3 348.0ZM404.1 351.3L402.1 351.3L402.1 338.2L404.1 338.2L404.1 351.3ZM403.2 336.0L403.2 336.0Q402.6 336.0 402.1 335.6Q401.7 335.2 401.7 334.6L401.7 334.6Q401.7 334.1 402.1 333.7Q402.6 333.3 403.2 333.3L403.2 333.3Q403.7 333.3 404.2 333.7Q404.6 334.1 404.6 334.6L404.6 334.6Q404.6 335.2 404.2 335.6Q403.7 336.0 403.2 336.0ZM411.7 351.6L411.7 351.6Q410.4 351.6 409.4 351.1Q408.4 350.6 407.8 349.7Q407.2 348.8 407.2 347.5L407.2 347.5Q407.2 346.4 407.7 345.7Q408.1 345.0 408.8 344.6Q409.6 344.2 410.5 344.0Q411.4 343.8 412.3 343.7L412.3 343.7Q413.5 343.5 414.2 343.4Q415.0 343.4 415.3 343.2Q415.7 343.0 415.7 342.5L415.7 342.5L415.7 342.4Q415.7 341.2 415.0 340.5Q414.3 339.8 412.9 339.8L412.9 339.8Q411.5 339.8 410.7 340.4Q409.8 341.0 409.5 341.7L409.5 341.7L407.6 341.1Q408.1 339.9 409.0 339.2Q409.8 338.5 410.8 338.3Q411.9 338.0 412.8 338.0L412.8 338.0Q413.5 338.0 414.3 338.1Q415.1 338.3 415.9 338.7Q416.7 339.2 417.2 340.1Q417.7 341.1 417.7 342.6L417.7 342.6L417.7 351.3L415.7 351.3L415.7 349.5L415.6 349.5Q415.4 349.9 414.9 350.4Q414.4 350.9 413.6 351.2Q412.8 351.6 411.7 351.6ZM412.0 349.8L412.0 349.8Q413.2 349.8 414.0 349.3Q414.8 348.8 415.2 348.1Q415.7 347.3 415.7 346.5L415.7 346.5L415.7 344.7Q415.5 344.8 415.1 344.9Q414.7 345.1 414.1 345.2Q413.6 345.3 413.0 345.3Q412.5 345.4 412.2 345.4L412.2 345.4Q411.4 345.5 410.7 345.7Q410.1 346.0 409.6 346.4Q409.2 346.9 409.2 347.6L409.2 347.6Q409.2 348.7 410.0 349.2Q410.8 349.8 412.0 349.8ZM421.4 333.8L423.4 333.8L423.4 351.3L421.4 351.3L421.4 333.8Z M436.0 351.3L433.9 351.3L433.9 338.2L436.0 338.2L436.0 351.3ZM435.0 336.0L435.0 336.0Q434.4 336.0 434.0 335.6Q433.5 335.2 433.5 334.6L433.5 334.6Q433.5 334.1 434.0 333.7Q434.4 333.3 435.0 333.3L435.0 333.3Q435.6 333.3 436.0 333.7Q436.4 334.1 436.4 334.6L436.4 334.6Q436.4 335.2 436.0 335.6Q435.6 336.0 435.0 336.0ZM441.6 343.4L441.6 343.4L441.6 351.3L439.6 351.3L439.6 338.2L441.6 338.2L441.6 340.2L441.7 340.2Q442.2 339.2 443.1 338.6Q444.1 338.0 445.6 338.0L445.6 338.0Q446.9 338.0 447.9 338.5Q448.9 339.1 449.4 340.2Q450.0 341.3 450.0 342.9L450.0 342.9L450.0 351.3L448.0 351.3L448.0 343.1Q448.0 341.5 447.2 340.7Q446.4 339.8 445.0 339.8L445.0 339.8Q444.0 339.8 443.3 340.2Q442.5 340.6 442.1 341.4Q441.6 342.2 441.6 343.4ZM461.7 338.2L463.9 338.2L459.1 351.3L457.0 351.3L452.2 338.2L454.4 338.2L458.0 348.6L458.1 348.6L461.7 338.2ZM471.6 351.5L471.6 351.5Q469.7 351.5 468.3 350.7Q467.0 349.8 466.2 348.3Q465.5 346.8 465.5 344.8L465.5 344.8Q465.5 342.8 466.2 341.3Q467.0 339.7 468.3 338.9Q469.6 338.0 471.4 338.0L471.4 338.0Q472.4 338.0 473.4 338.3Q474.4 338.7 475.2 339.4Q476.0 340.2 476.5 341.4Q477.0 342.7 477.0 344.5L477.0 344.5L477.0 345.4L466.9 345.4L466.9 343.6L475.0 343.6Q475.0 342.5 474.5 341.7Q474.1 340.8 473.3 340.3Q472.5 339.8 471.4 339.8L471.4 339.8Q470.2 339.8 469.3 340.4Q468.4 341.0 468.0 341.9Q467.5 342.9 467.5 344.0L467.5 344.0L467.5 345.1Q467.5 346.6 468.0 347.6Q468.5 348.7 469.4 349.2Q470.4 349.7 471.6 349.7L471.6 349.7Q472.4 349.7 473.0 349.5Q473.7 349.3 474.1 348.8Q474.6 348.4 474.9 347.7L474.9 347.7L476.8 348.2Q476.5 349.2 475.8 350.0Q475.0 350.7 474.0 351.1Q472.9 351.5 471.6 351.5ZM489.3 341.1L489.3 341.1L487.5 341.6Q487.4 341.2 487.0 340.7Q486.7 340.3 486.1 340.0Q485.6 339.7 484.7 339.7L484.7 339.7Q483.5 339.7 482.7 340.3Q481.9 340.8 481.9 341.7L481.9 341.7Q481.9 342.4 482.5 342.9Q483.0 343.3 484.2 343.6L484.2 343.6L486.1 344.1Q487.9 344.5 488.7 345.4Q489.6 346.2 489.6 347.6L489.6 347.6Q489.6 348.7 488.9 349.6Q488.3 350.5 487.1 351.0Q486.0 351.5 484.5 351.5L484.5 351.5Q482.5 351.5 481.2 350.7Q479.8 349.8 479.5 348.1L479.5 348.1L481.4 347.6Q481.7 348.7 482.4 349.2Q483.2 349.8 484.4 349.8L484.4 349.8Q485.8 349.8 486.7 349.1Q487.5 348.5 487.5 347.7L487.5 347.7Q487.5 347.0 487.0 346.6Q486.5 346.1 485.6 345.9L485.6 345.9L483.4 345.4Q481.6 344.9 480.7 344.0Q479.9 343.1 479.9 341.8L479.9 341.8Q479.9 340.7 480.5 339.8Q481.2 339.0 482.2 338.5Q483.3 338.0 484.7 338.0L484.7 338.0Q486.6 338.0 487.8 338.8Q488.9 339.7 489.3 341.1ZM491.5 338.2L498.3 338.2L498.3 339.9L491.5 339.9L491.5 338.2ZM493.5 348.0L493.5 335.0L495.5 335.0L495.5 347.5Q495.5 348.4 495.8 348.8Q496.0 349.2 496.4 349.3Q496.8 349.5 497.2 349.5L497.2 349.5Q497.6 349.5 497.8 349.4Q498.0 349.4 498.1 349.4L498.1 349.4L498.5 351.2Q498.3 351.3 498.0 351.3Q497.6 351.4 497.0 351.4L497.0 351.4Q496.2 351.4 495.4 351.1Q494.6 350.7 494.0 349.9Q493.5 349.2 493.5 348.0L493.5 348.0ZM503.4 351.3L501.3 351.3L501.3 338.2L503.3 338.2L503.3 340.2L503.5 340.2Q503.9 339.2 504.8 338.6Q505.7 338.0 507.0 338.0L507.0 338.0Q508.3 338.0 509.1 338.6Q510.0 339.2 510.5 340.2L510.5 340.2L510.6 340.2Q511.1 339.2 512.1 338.6Q513.1 338.0 514.5 338.0L514.5 338.0Q516.3 338.0 517.4 339.1Q518.5 340.2 518.5 342.5L518.5 342.5L518.5 351.3L516.5 351.3L516.5 342.5Q516.5 341.0 515.7 340.4Q514.9 339.8 513.9 339.8L513.9 339.8Q512.5 339.8 511.7 340.6Q511.0 341.5 511.0 342.7L511.0 342.7L511.0 351.3L508.9 351.3L508.9 342.3Q508.9 341.2 508.2 340.5Q507.5 339.8 506.3 339.8L506.3 339.8Q505.5 339.8 504.9 340.2Q504.2 340.6 503.8 341.4Q503.4 342.1 503.4 343.1L503.4 343.1L503.4 351.3ZM527.7 351.5L527.7 351.5Q525.8 351.5 524.4 350.7Q523.1 349.8 522.3 348.3Q521.6 346.8 521.6 344.8L521.6 344.8Q521.6 342.8 522.3 341.3Q523.1 339.7 524.4 338.9Q525.7 338.0 527.5 338.0L527.5 338.0Q528.5 338.0 529.5 338.3Q530.5 338.7 531.3 339.4Q532.1 340.2 532.6 341.4Q533.1 342.7 533.1 344.5L533.1 344.5L533.1 345.4L523.0 345.4L523.0 343.6L531.1 343.6Q531.1 342.5 530.6 341.7Q530.2 340.8 529.4 340.3Q528.6 339.8 527.5 339.8L527.5 339.8Q526.3 339.8 525.4 340.4Q524.5 341.0 524.1 341.9Q523.6 342.9 523.6 344.0L523.6 344.0L523.6 345.1Q523.6 346.6 524.1 347.6Q524.6 348.7 525.6 349.2Q526.5 349.7 527.7 349.7L527.7 349.7Q528.5 349.7 529.1 349.5Q529.8 349.3 530.2 348.8Q530.7 348.4 531.0 347.7L531.0 347.7L532.9 348.2Q532.6 349.2 531.9 350.0Q531.2 350.7 530.1 351.1Q529.0 351.5 527.7 351.5ZM538.2 343.4L538.2 343.4L538.2 351.3L536.2 351.3L536.2 338.2L538.1 338.2L538.1 340.2L538.3 340.2Q538.8 339.2 539.7 338.6Q540.6 338.0 542.1 338.0L542.1 338.0Q543.4 338.0 544.4 338.5Q545.4 339.1 546.0 340.2Q546.5 341.3 546.5 342.9L546.5 342.9L546.5 351.3L544.5 351.3L544.5 343.1Q544.5 341.5 543.7 340.7Q542.9 339.8 541.5 339.8L541.5 339.8Q540.6 339.8 539.8 340.2Q539.1 340.6 538.6 341.4Q538.2 342.2 538.2 343.4ZM549.1 338.2L555.9 338.2L555.9 339.9L549.1 339.9L549.1 338.2ZM551.1 348.0L551.1 335.0L553.1 335.0L553.1 347.5Q553.1 348.4 553.4 348.8Q553.6 349.2 554.0 349.3Q554.4 349.5 554.9 349.5L554.9 349.5Q555.2 349.5 555.4 349.4Q555.6 349.4 555.7 349.4L555.7 349.4L556.2 351.2Q556.0 351.3 555.6 351.3Q555.2 351.4 554.7 351.4L554.7 351.4Q553.8 351.4 553.0 351.1Q552.2 350.7 551.6 349.9Q551.1 349.2 551.1 348.0L551.1 348.0Z M568.7 351.3L566.7 351.3L566.7 338.2L568.6 338.2L568.6 340.1L568.7 340.1Q569.1 339.2 570.0 338.6Q571.0 338.0 572.1 338.0L572.1 338.0Q572.4 338.0 572.7 338.0Q573.0 338.0 573.2 338.0L573.2 338.0L573.2 340.0Q573.1 340.0 572.7 340.0Q572.4 339.9 572.0 339.9L572.0 339.9Q571.0 339.9 570.3 340.3Q569.5 340.7 569.1 341.4Q568.7 342.1 568.7 343.0L568.7 343.0L568.7 351.3ZM580.7 351.5L580.7 351.5Q578.8 351.5 577.4 350.7Q576.0 349.8 575.3 348.3Q574.6 346.8 574.6 344.8L574.6 344.8Q574.6 342.8 575.3 341.3Q576.0 339.7 577.4 338.9Q578.7 338.0 580.5 338.0L580.5 338.0Q581.5 338.0 582.5 338.3Q583.5 338.7 584.3 339.4Q585.1 340.2 585.6 341.4Q586.1 342.7 586.1 344.5L586.1 344.5L586.1 345.4L576.0 345.4L576.0 343.6L584.0 343.6Q584.0 342.5 583.6 341.7Q583.2 340.8 582.4 340.3Q581.6 339.8 580.5 339.8L580.5 339.8Q579.3 339.8 578.4 340.4Q577.5 341.0 577.0 341.9Q576.6 342.9 576.6 344.0L576.6 344.0L576.6 345.1Q576.6 346.6 577.1 347.6Q577.6 348.7 578.5 349.2Q579.5 349.7 580.7 349.7L580.7 349.7Q581.5 349.7 582.1 349.5Q582.7 349.3 583.2 348.8Q583.7 348.4 583.9 347.7L583.9 347.7L585.9 348.2Q585.6 349.2 584.9 350.0Q584.1 350.7 583.1 351.1Q582.0 351.5 580.7 351.5ZM588.1 338.2L594.9 338.2L594.9 339.9L588.1 339.9L588.1 338.2ZM590.0 348.0L590.0 335.0L592.1 335.0L592.1 347.5Q592.1 348.4 592.3 348.8Q592.6 349.2 593.0 349.3Q593.4 349.5 593.8 349.5L593.8 349.5Q594.1 349.5 594.3 349.4Q594.6 349.4 594.7 349.4L594.7 349.4L595.1 351.2Q594.9 351.3 594.5 351.3Q594.2 351.4 593.6 351.4L593.6 351.4Q592.7 351.4 591.9 351.1Q591.1 350.7 590.6 349.9Q590.0 349.2 590.0 348.0L590.0 348.0ZM606.1 345.9L606.1 345.9L606.1 338.2L608.1 338.2L608.1 351.3L606.1 351.3L606.1 349.0L606 349.0Q605.5 350.0 604.6 350.7Q603.6 351.4 602.1 351.4L602.1 351.4Q600.9 351.4 599.9 350.9Q599.0 350.3 598.4 349.2Q597.9 348.1 597.9 346.5L597.9 346.5L597.9 338.2L599.9 338.2L599.9 346.3Q599.9 347.8 600.7 348.6Q601.5 349.5 602.8 349.5L602.8 349.5Q603.5 349.5 604.3 349.1Q605.1 348.7 605.6 347.9Q606.1 347.1 606.1 345.9ZM613.8 351.3L611.8 351.3L611.8 338.2L613.8 338.2L613.8 340.1L613.9 340.1Q614.3 339.2 615.2 338.6Q616.1 338.0 617.3 338.0L617.3 338.0Q617.5 338.0 617.9 338.0Q618.2 338.0 618.4 338.0L618.4 338.0L618.4 340.0Q618.3 340.0 617.9 340.0Q617.5 339.9 617.1 339.9L617.1 339.9Q616.2 339.9 615.4 340.3Q614.7 340.7 614.3 341.4Q613.8 342.1 613.8 343.0L613.8 343.0L613.8 351.3ZM622.8 343.4L622.8 343.4L622.8 351.3L620.8 351.3L620.8 338.2L622.7 338.2L622.7 340.2L622.9 340.2Q623.3 339.2 624.3 338.6Q625.2 338.0 626.7 338.0L626.7 338.0Q628.0 338.0 629.0 338.5Q630.0 339.1 630.6 340.2Q631.1 341.3 631.1 342.9L631.1 342.9L631.1 351.3L629.1 351.3L629.1 343.1Q629.1 341.5 628.3 340.7Q627.5 339.8 626.1 339.8L626.1 339.8Q625.2 339.8 624.4 340.2Q623.6 340.6 623.2 341.4Q622.8 342.2 622.8 343.4ZM644.1 341.1L644.1 341.1L642.3 341.6Q642.1 341.2 641.8 340.7Q641.4 340.3 640.9 340.0Q640.3 339.7 639.4 339.7L639.4 339.7Q638.2 339.7 637.4 340.3Q636.6 340.8 636.6 341.7L636.6 341.7Q636.6 342.4 637.2 342.9Q637.7 343.3 638.9 343.6L638.9 343.6L640.8 344.1Q642.6 344.5 643.5 345.4Q644.3 346.2 644.3 347.6L644.3 347.6Q644.3 348.7 643.7 349.6Q643.0 350.5 641.9 351.0Q640.7 351.5 639.2 351.5L639.2 351.5Q637.2 351.5 635.9 350.7Q634.6 349.8 634.2 348.1L634.2 348.1L636.1 347.6Q636.4 348.7 637.2 349.2Q637.9 349.8 639.2 349.8L639.2 349.8Q640.6 349.8 641.4 349.1Q642.2 348.5 642.2 347.7L642.2 347.7Q642.2 347.0 641.8 346.6Q641.3 346.1 640.3 345.9L640.3 345.9L638.1 345.4Q636.3 344.9 635.5 344.0Q634.6 343.1 634.6 341.8L634.6 341.8Q634.6 340.7 635.3 339.8Q635.9 339.0 637.0 338.5Q638.1 338.0 639.4 338.0L639.4 338.0Q641.4 338.0 642.5 338.8Q643.6 339.7 644.1 341.1Z " opacity="0.9"/></svg>